<svg width="22" height="28" viewBox="0 0 22 28" fill="none" xmlns="http://www.w3.org/2000/svg">
<path fill="#8F8884" d="M20.6243 23.625H1.37431C1.22515 23.6245 1.07858 23.586 0.94853 23.5129C0.818475 23.4399 0.709249 23.3348 0.631223 23.2077C0.553197 23.0806 0.508962 22.9357 0.50272 22.7866C0.496477 22.6376 0.528434 22.4895 0.595555 22.3562C1.67519 20.1802 2.24096 17.7854 2.24931 15.3562V12.25C2.24931 9.92936 3.17118 7.70376 4.81212 6.06282C6.45306 4.42187 8.67866 3.5 10.9993 3.5C13.3199 3.5 15.5455 4.42187 17.1865 6.06282C18.8274 7.70376 19.7493 9.92936 19.7493 12.25V15.3388C19.7576 17.7679 20.3234 20.1627 21.4031 22.3388C21.4743 22.4726 21.5096 22.6226 21.5054 22.7741C21.5012 22.9257 21.4578 23.0735 21.3792 23.2032C21.3007 23.3329 21.1899 23.4399 21.0575 23.5139C20.9252 23.5878 20.7759 23.6261 20.6243 23.625V23.625ZM2.73056 21.875H19.2681C18.4336 19.7967 18.003 17.5783 17.9993 15.3388V12.25C17.9993 10.3935 17.2618 8.61301 15.9491 7.30025C14.6363 5.9875 12.8558 5.25 10.9993 5.25C9.14279 5.25 7.36231 5.9875 6.04956 7.30025C4.7368 8.61301 3.99931 10.3935 3.99931 12.25V15.3388C3.99557 17.5783 3.56496 19.7967 2.73056 21.875V21.875Z"/>
<path fill="#8F8884" d="M11 5.25C10.7679 5.25 10.5454 5.15781 10.3813 4.99372C10.2172 4.82962 10.125 4.60706 10.125 4.375V1.75C10.125 1.51794 10.2172 1.29538 10.3813 1.13128C10.5454 0.967187 10.7679 0.875 11 0.875C11.2321 0.875 11.4546 0.967187 11.6187 1.13128C11.7828 1.29538 11.875 1.51794 11.875 1.75V4.375C11.875 4.60706 11.7828 4.82962 11.6187 4.99372C11.4546 5.15781 11.2321 5.25 11 5.25Z"/>
<path fill="#8F8884" fill-rule="evenodd" clip-rule="evenodd" d="M8.375 22.75C8.375 24.1997 9.55025 25.375 11 25.375C12.4497 25.375 13.625 24.1997 13.625 22.75H15.375C15.375 25.1662 13.4162 27.125 11 27.125C8.58375 27.125 6.625 25.1662 6.625 22.75H8.375Z"/>
</svg>
