<svg width="44" height="44" viewBox="0 0 44 44" fill="none" xmlns="http://www.w3.org/2000/svg">
<g clip-path="url(#clip0_851_42698)">
<path d="M8.42546 8.33301H20.0292C20.0764 8.33301 20.1206 8.37237 20.1206 8.4283V23.5023C20.1206 23.5582 20.0764 23.5976 20.0292 23.5976H8.42546C8.37823 23.5976 8.33398 23.5582 8.33398 23.5023V8.4283C8.33398 8.37237 8.37823 8.33301 8.42546 8.33301Z" stroke="#CFC7C0" stroke-width="2"/>
<path d="M23.9723 20.4023H35.5761C35.6233 20.4023 35.6675 20.4417 35.6675 20.4976V35.5716C35.6675 35.6275 35.6233 35.6669 35.5761 35.6669H23.9723C23.9251 35.6669 23.8809 35.6275 23.8809 35.5716V20.4976C23.8809 20.4417 23.9251 20.4023 23.9723 20.4023Z" stroke="#CFC7C0" stroke-width="2"/>
<path d="M23.9723 8.33301H35.5761C35.6233 8.33301 35.6675 8.37237 35.6675 8.4283V16.6635C35.6675 16.7195 35.6233 16.7588 35.5761 16.7588H23.9723C23.9251 16.7588 23.8809 16.7195 23.8809 16.6635V8.4283C23.8809 8.37237 23.9251 8.33301 23.9723 8.33301Z" stroke="#CFC7C0" stroke-width="2"/>
<path d="M8.42546 27.2402H20.0292C20.0764 27.2402 20.1206 27.2796 20.1206 27.3355V35.5708C20.1206 35.6267 20.0764 35.6661 20.0292 35.6661H8.42546C8.37823 35.6661 8.33398 35.6267 8.33398 35.5708V27.3355C8.33398 27.2796 8.37823 27.2402 8.42546 27.2402Z" stroke="#CFC7C0" stroke-width="2"/>
</g>
<defs>
<clipPath id="clip0_851_42698">
<rect width="44" height="44" fill="white"/>
</clipPath>
</defs>
</svg>
