<svg width="14" height="13" viewBox="0 0 14 13" fill="none" xmlns="http://www.w3.org/2000/svg">
<g clip-path="url(#clip0_203_265256)">
<path d="M13.2959 5.47377H12.8966C9.28613 5.47377 5.67564 5.47377 2.06515 5.47377C1.94313 5.47956 1.82081 5.47443 1.69974 5.45845C1.65787 5.45417 1.6173 5.44179 1.58038 5.42201C1.54345 5.40223 1.51092 5.37546 1.48469 5.34326C1.45845 5.31106 1.43902 5.27406 1.42755 5.23444C1.41608 5.19482 1.41279 5.15336 1.41787 5.11248C1.41574 5.0297 1.44699 4.94942 1.50486 4.88899C1.56273 4.82856 1.64257 4.79282 1.72715 4.78949C1.81405 4.78381 1.90125 4.78381 1.98815 4.78949H13.2816C13.2816 4.12053 13.3155 3.47072 13.2698 2.8273C13.2385 2.38048 12.8118 2.07153 12.3289 2.05238C12.0849 2.04344 11.8396 2.05238 11.5955 2.046C11.3515 2.03961 11.1832 1.90046 11.204 1.69747C11.2236 1.46768 11.3763 1.37449 11.5955 1.37066C11.8148 1.36683 12.0679 1.37066 12.3041 1.37066C13.2959 1.39236 14.0006 2.08047 14.0006 3.05582C14.0006 4.72311 14.0006 6.39039 14.0006 8.05896C14.0006 9.11857 14.0006 10.179 14.0006 11.2403C14.0006 12.3229 13.2999 13.0021 12.1958 13.0021H1.78457C0.719693 13.0021 0.00585938 12.3063 0.00585938 11.2671C0.00585938 8.55557 0.00585938 5.84357 0.00585938 3.13114C0.00585938 2.04727 0.696202 1.37321 1.80806 1.37066C2.2883 1.37066 2.76984 1.37066 3.25008 1.37066C3.4393 1.37066 3.52152 1.31576 3.51108 1.11533C3.49933 0.867661 3.51108 0.619993 3.51108 0.371049C3.51108 0.152744 3.6207 0.0097605 3.85299 -0.0119423C4.04874 -0.0247087 4.19751 0.125934 4.19881 0.358282C4.19881 1.25193 4.19881 2.13664 4.19881 3.02645C4.19881 3.24604 4.08658 3.39668 3.85429 3.39668C3.622 3.39668 3.51369 3.24604 3.50977 3.02645C3.50977 2.77113 3.50064 2.5158 3.50977 2.26047C3.50977 2.09323 3.44583 2.03451 3.27879 2.03578C2.75679 2.04217 2.24654 2.03578 1.73107 2.03578C1.09945 2.046 0.709253 2.44048 0.707948 3.05709C0.707948 5.78654 0.707948 8.51557 0.707948 11.2442C0.707948 11.9131 1.09031 12.291 1.78196 12.291C4.76344 12.291 7.74536 12.291 10.7277 12.291C11.2497 12.291 11.76 12.291 12.2754 12.291C12.911 12.2834 13.2985 11.8953 13.2985 11.2697C13.2985 9.42283 13.2985 7.57511 13.2985 5.72654L13.2959 5.47377Z" fill="black"/>
<path d="M7.45075 2.04692C6.75127 2.04692 6.05179 2.05713 5.35362 2.0367C5.27543 2.03171 5.19903 2.01153 5.1289 1.97734C5.05877 1.94314 4.99631 1.89562 4.94516 1.83755C4.8003 1.63839 4.98431 1.38179 5.2688 1.37285C5.72294 1.35881 6.1823 1.36136 6.63252 1.36009C7.593 1.36009 8.55478 1.35115 9.51656 1.36009C9.72928 1.36009 9.81932 1.30391 9.80366 1.08561C9.788 0.867303 9.79453 0.623465 9.80366 0.393671C9.8128 0.138343 9.95243 -0.0122998 10.1573 0.00301982C10.3909 0.0196161 10.4927 0.165153 10.494 0.386011C10.494 1.26689 10.494 2.14777 10.494 3.02865C10.494 3.27632 10.3439 3.43334 10.139 3.41164C9.90676 3.39249 9.80627 3.24568 9.80366 3.02865C9.80366 2.78098 9.79453 2.53204 9.80366 2.28437C9.81149 2.09798 9.74624 2.02904 9.54266 2.02904C8.84449 2.03798 8.14501 2.02904 7.44553 2.02904L7.45075 2.04692Z" fill="black"/>
<path d="M7.01241 10.7598C6.87655 10.764 6.74436 10.7162 6.64395 10.6266C6.54354 10.5369 6.48284 10.4125 6.47476 10.2798C6.47147 10.1443 6.52331 10.0132 6.61888 9.91512C6.71445 9.81708 6.84591 9.7602 6.98435 9.75698C7.1228 9.75376 7.25688 9.80448 7.3571 9.89797C7.45731 9.99146 7.51547 10.1201 7.51875 10.2555C7.51945 10.3879 7.46662 10.5152 7.37177 10.6097C7.27693 10.7041 7.14775 10.7581 7.01241 10.7598Z" fill="black"/>
<path d="M6.98942 7.02557C7.12505 7.02204 7.25676 7.0703 7.35664 7.16015C7.45652 7.24999 7.51671 7.37435 7.52447 7.50686C7.52741 7.6423 7.47523 7.77333 7.37942 7.87113C7.28361 7.96893 7.152 8.02549 7.01356 8.02837C6.87512 8.03125 6.74118 7.9802 6.6412 7.88647C6.54123 7.79274 6.48341 7.664 6.48047 7.52857C6.48245 7.39665 6.53655 7.27059 6.63142 7.17683C6.7263 7.08306 6.8546 7.02886 6.98942 7.02557Z" fill="black"/>
<path d="M3.83968 10.7598C3.70418 10.7571 3.57504 10.703 3.47957 10.6089C3.3841 10.5148 3.32979 10.3881 3.32812 10.2555C3.32975 10.1884 3.34486 10.1224 3.3726 10.061C3.40034 9.99966 3.44016 9.94426 3.48978 9.89797C3.53941 9.85168 3.59786 9.8154 3.66181 9.79121C3.72577 9.76702 3.79397 9.75539 3.86252 9.75698C3.93107 9.75857 3.99862 9.77336 4.06133 9.80049C4.12404 9.82763 4.18067 9.86658 4.22799 9.91512C4.27531 9.96367 4.3124 10.0209 4.33713 10.0834C4.36186 10.146 4.37375 10.2127 4.37212 10.2798C4.36405 10.4116 4.30409 10.5353 4.20481 10.6248C4.10553 10.7143 3.97466 10.7627 3.83968 10.7598Z" fill="black"/>
<path d="M10.1509 10.7597C10.016 10.7598 9.8863 10.7088 9.78899 10.6174C9.69167 10.526 9.6343 10.4013 9.62891 10.2694C9.62891 10.134 9.6839 10.0041 9.7818 9.90836C9.87969 9.81259 10.0125 9.75879 10.1509 9.75879C10.2893 9.75879 10.4221 9.81259 10.52 9.90836C10.6179 10.0041 10.6729 10.134 10.6729 10.2694C10.6675 10.4013 10.6101 10.526 10.5128 10.6174C10.4155 10.7088 10.2858 10.7598 10.1509 10.7597Z" fill="black"/>
<path d="M3.85995 7.02547C3.92784 7.02429 3.9953 7.0363 4.05841 7.06083C4.12152 7.08535 4.17902 7.12189 4.22758 7.16833C4.27614 7.21476 4.3148 7.27017 4.34129 7.33134C4.36779 7.3925 4.38161 7.45821 4.38195 7.52464C4.37987 7.66007 4.32288 7.78915 4.22351 7.88348C4.12415 7.97781 3.99056 8.02966 3.85212 8.02763C3.71368 8.0256 3.58173 7.96985 3.4853 7.87265C3.38888 7.77544 3.33587 7.64475 3.33795 7.50932C3.34497 7.37858 3.40306 7.25548 3.5002 7.16544C3.59734 7.0754 3.72613 7.02529 3.85995 7.02547Z" fill="black"/>
<path d="M10.6729 7.5127C10.674 7.64813 10.62 7.77842 10.5228 7.87491C10.4256 7.97139 10.2933 8.02617 10.1548 8.02718C10.0164 8.0282 9.88321 7.97537 9.78458 7.88032C9.68595 7.78528 9.62996 7.65579 9.62892 7.52036C9.62788 7.38492 9.68189 7.25463 9.77905 7.15815C9.87621 7.06166 10.0086 7.00689 10.147 7.00587C10.2855 7.00486 10.4186 7.05768 10.5173 7.15273C10.6159 7.24778 10.6719 7.37726 10.6729 7.5127Z" fill="black"/>
</g>
<defs>
<clipPath id="clip0_203_265256">
<rect width="14" height="13" fill="white"/>
</clipPath>
</defs>
</svg>
