<svg width="18" height="18" viewBox="0 0 18 18" fill="none" xmlns="http://www.w3.org/2000/svg">
<g clip-path="url(#clip0_1149_1944)">
<path d="M1.52219 2.60568C1.51166 2.78124 1.50113 2.87253 1.50113 2.97084C1.50113 3.45714 1.50113 3.94519 1.50113 4.43149C1.50113 4.91778 1.17283 5.26364 0.73218 5.24959C0.291528 5.23555 0.00712668 4.89847 0.00537109 4.41744C0.00537109 3.21662 0.00537109 2.01698 0.00537109 0.818497C0.00537109 0.304111 0.312597 0.00390625 0.832249 0.00390625C2.0319 0.00390625 3.23096 0.00390625 4.42944 0.00390625C4.91222 0.00390625 5.24403 0.305867 5.25105 0.739496C5.25807 1.17313 4.92978 1.49089 4.44875 1.49089C3.96772 1.49089 3.4744 1.49089 2.98635 1.49089H2.59837C2.72301 1.63309 2.78797 1.7156 2.8617 1.78933C4.32586 3.25115 5.78885 4.71414 7.25066 6.17829C7.39296 6.31155 7.50596 6.47298 7.58246 6.6523C7.63694 6.80891 7.63539 6.97957 7.57808 7.13516C7.52077 7.29076 7.41126 7.42165 7.26822 7.50551C7.12306 7.59486 6.95178 7.63207 6.78264 7.61101C6.61349 7.58995 6.45657 7.51187 6.33776 7.38965C5.66186 6.72604 4.99649 6.05365 4.32762 5.38301L1.78553 2.83742C1.72057 2.78124 1.64684 2.71979 1.52219 2.60568Z" fill="white"/>
<path d="M16.4198 2.65262C16.3478 2.72109 16.2741 2.7878 16.2039 2.85802L11.8869 7.16623C11.8131 7.23821 11.7429 7.3137 11.6657 7.38041C11.596 7.4474 11.5138 7.49994 11.4237 7.53499C11.3336 7.57004 11.2375 7.58691 11.1409 7.58463C11.0443 7.58234 10.9491 7.56095 10.8608 7.52168C10.7724 7.48241 10.6928 7.42604 10.6264 7.35583C10.557 7.28857 10.5019 7.20807 10.4643 7.11911C10.4266 7.03015 10.4072 6.93453 10.4072 6.83793C10.4072 6.74133 10.4266 6.64572 10.4643 6.55676C10.5019 6.46779 10.557 6.3873 10.6264 6.32004C11.1179 5.80565 11.6288 5.30882 12.1327 4.80672L15.1505 1.78887C15.219 1.72041 15.2822 1.64492 15.3945 1.52027C15.219 1.52027 15.1259 1.50096 15.0294 1.50096C14.5325 1.50096 14.0357 1.50096 13.5389 1.50096C13.0421 1.50096 12.7366 1.16389 12.7524 0.733769C12.7557 0.632738 12.7793 0.533408 12.8219 0.441728C12.8645 0.350048 12.9251 0.267903 13.0002 0.200208C13.0753 0.132513 13.1632 0.0806611 13.2588 0.0477571C13.3544 0.0148532 13.4556 0.00157321 13.5564 0.00871217C14.7643 0.00871217 15.9727 0.00871217 17.1817 0.00871217C17.6961 0.00871217 17.9963 0.314184 17.9981 0.835592C17.9981 2.03407 17.9981 3.23313 17.9981 4.43278C17.9981 4.91381 17.6926 5.24737 17.259 5.2544C16.8253 5.26142 16.5128 4.93488 16.5041 4.45385C16.4953 3.97282 16.5041 3.4795 16.5041 2.99145V2.68598L16.4198 2.65262Z" fill="white"/>
<path d="M16.5009 15.316V14.986C16.5009 14.4716 16.4921 13.9554 16.5149 13.441C16.5183 13.3469 16.5403 13.2543 16.5796 13.1687C16.6189 13.0831 16.6747 13.006 16.7439 12.9421C16.8131 12.8781 16.8942 12.8285 16.9827 12.796C17.0711 12.7635 17.1651 12.7489 17.2593 12.7528C17.4488 12.7518 17.6313 12.8245 17.7683 12.9555C17.9052 13.0865 17.9858 13.2657 17.9931 13.4551C18.0036 14.7296 18.0036 16.0042 17.9931 17.2787C17.9876 17.4678 17.9082 17.6472 17.7721 17.7785C17.6359 17.9097 17.4537 17.9824 17.2645 17.981C16.0093 17.9898 14.754 17.981 13.4971 17.981C13.3024 17.9819 13.1151 17.9062 12.9758 17.7702C12.8365 17.6342 12.7564 17.4488 12.7527 17.2542C12.7482 17.1582 12.7629 17.0622 12.796 16.972C12.829 16.8817 12.8797 16.7989 12.945 16.7285C13.0104 16.6581 13.0892 16.6013 13.1767 16.5617C13.2643 16.522 13.3588 16.5002 13.4549 16.4975C13.9605 16.4764 14.4679 16.487 14.9735 16.4852H15.3913C15.2719 16.3465 15.207 16.264 15.135 16.192C13.6685 14.7279 12.1979 13.2608 10.7232 11.7908C10.4897 11.5573 10.3405 11.3045 10.4441 10.9622C10.4767 10.8443 10.5381 10.7363 10.6226 10.6478C10.7071 10.5594 10.8122 10.4933 10.9286 10.4554C11.0449 10.4175 11.1688 10.409 11.2892 10.4306C11.4096 10.4523 11.5227 10.5034 11.6186 10.5794C11.7051 10.651 11.7872 10.7278 11.8644 10.8094C13.3168 12.2595 14.7681 13.7108 16.2182 15.1633C16.2814 15.2265 16.3516 15.2844 16.4183 15.3388L16.5009 15.316Z" fill="white"/>
<path d="M1.57843 15.3495C1.65743 15.2757 1.73643 15.2037 1.81368 15.1282L6.24302 10.6972C6.33843 10.5803 6.46683 10.4948 6.61149 10.4519C6.75616 10.409 6.91038 10.4107 7.0541 10.4566C7.18602 10.4938 7.30455 10.5679 7.3957 10.6703C7.48685 10.7726 7.5468 10.8989 7.56848 11.0342C7.63344 11.3537 7.47543 11.589 7.2595 11.8049C5.85503 13.2094 4.45056 14.6139 3.0461 16.0183C2.91443 16.15 2.7652 16.2641 2.623 16.3852L2.66689 16.4801C2.75818 16.4888 2.85123 16.5046 2.94427 16.5046C3.43057 16.5046 3.91862 16.5046 4.40492 16.5046C4.89122 16.5046 5.2476 16.8083 5.24936 17.2472C5.25111 17.6861 4.90877 18.0004 4.38736 18.0004H0.846349C0.303873 18.0004 0.00366872 17.7072 0.00191314 17.1753C0.00191314 15.9581 0.00191314 14.7409 0.00191314 13.5236C-0.00385275 13.3581 0.0461402 13.1955 0.143874 13.0618C0.241608 12.9281 0.381419 12.831 0.540879 12.7863C0.689045 12.7377 0.849183 12.7397 0.99604 12.7922C1.1429 12.8446 1.26812 12.9445 1.35196 13.076C1.44109 13.2488 1.48915 13.4398 1.49241 13.6342C1.50996 14.1943 1.49241 14.7543 1.49241 15.3143L1.57843 15.3495Z" fill="white"/>
</g>
<defs>
<clipPath id="clip0_1149_1944">
<rect width="18" height="18" fill="white"/>
</clipPath>
</defs>
</svg>
