<svg width="114" height="32" viewBox="0 0 114 32" fill="none" xmlns="http://www.w3.org/2000/svg">
<path d="M0.32683 28.0137L3.15948 27.4131V4.15022L0 3.54962V0H9.31504V12.4507C9.9386 11.468 10.8008 10.6601 11.8208 10.1026C12.8393 9.54025 13.9811 9.23985 15.1437 9.22868C16.1662 9.16816 17.1889 9.34337 18.1332 9.74096C19.0776 10.1386 19.9184 10.7479 20.5911 11.5221C22.033 13.5745 22.7255 16.0624 22.5522 18.5667V27.4131L25.3849 28.0137V31.5633H13.7819V28.0137L16.2877 27.4131V18.512C16.4255 17.2455 16.1171 15.9707 15.4161 14.9081C15.0765 14.5466 14.6605 14.2657 14.1987 14.0862C13.7369 13.9066 13.2408 13.8331 12.7469 13.8705C11.9958 13.8345 11.2474 13.9843 10.5679 14.3071C9.96709 14.5982 9.44419 15.029 9.04267 15.5633V27.4131L11.6029 28.0137V31.5633H0.32683V28.0137Z" fill="#FF0000"/>
<path d="M39.6564 28.7786C39.0156 29.7806 38.1356 30.6064 37.0961 31.1814C36.0004 31.7406 34.7846 32.0216 33.5553 32.0003C32.5394 32.048 31.5253 31.8725 30.5843 31.4857C29.6433 31.0989 28.7981 30.5104 28.1079 29.7615C26.6625 27.775 25.9851 25.3302 26.2013 22.8809V13.8162L23.75 13.2153V9.66602H32.0845V22.9356C31.9997 24.1323 32.2647 25.3278 32.8471 26.3759C33.1427 26.7189 33.5118 26.9905 33.9269 27.1701C34.342 27.3498 34.7923 27.433 35.244 27.4135C36.0698 27.4339 36.8894 27.2657 37.6409 26.9218C38.3215 26.6635 38.9096 26.2072 39.3295 25.6113V13.8162L36.7148 13.2153V9.66602H45.2127V27.4135L47.882 28.0141V31.5637H40.0377L39.6564 28.7786Z" fill="#FF0000"/>
<path d="M65.8585 17.2012H61.9364L61.2827 14.4708C60.8324 14.1007 60.3143 13.8223 59.7575 13.6515C59.1104 13.4232 58.4279 13.3122 57.7419 13.3239C56.8672 13.2668 56.0001 13.5179 55.2906 14.0338C55.0067 14.2282 54.7741 14.4887 54.6128 14.7931C54.4515 15.0975 54.3663 15.4367 54.3646 15.7813C54.359 16.1061 54.4361 16.4269 54.5886 16.7135C54.7411 17.0002 54.9639 17.2432 55.2361 17.4195C56.3115 18.0283 57.4963 18.4182 58.7225 18.5663C60.8756 18.9018 62.9246 19.7234 64.7146 20.9691C65.3439 21.4942 65.847 22.1547 66.1865 22.9016C66.526 23.6484 66.6932 24.4624 66.6757 25.283C66.6901 26.2374 66.4689 27.1807 66.0317 28.0287C65.5945 28.8766 64.9549 29.6029 64.1699 30.1431C62.1986 31.4788 59.8453 32.1307 57.4696 31.9996C55.8942 32.0077 54.3288 31.7495 52.8393 31.2353C51.4771 30.7645 50.2057 30.0625 49.0806 29.1602V24.2454H53.2206L54.0377 27.0851C54.4597 27.399 54.9419 27.6221 55.454 27.7404C56.0883 27.7962 56.7263 27.7962 57.3606 27.7404C58.3139 27.8055 59.2643 27.5769 60.0843 27.0851C60.379 26.9019 60.62 26.6435 60.7826 26.3365C60.9453 26.0295 61.0239 25.685 61.0104 25.3376C61.0092 25.0004 60.9238 24.6687 60.7621 24.3731C60.6003 24.0774 60.3673 23.8271 60.0843 23.6448C59.0118 23.0091 57.8288 22.583 56.598 22.3889C54.5052 22.0499 52.5141 21.2475 50.7693 20.0405C50.1326 19.5463 49.6225 18.9073 49.2815 18.1761C48.9404 17.4448 48.7782 16.6426 48.8082 15.836C48.7973 14.9262 48.9926 14.0259 49.3795 13.2029C49.7664 12.3799 50.3348 11.6558 51.0416 11.0851C52.8553 9.6266 55.1499 8.90537 57.4696 9.0647C59.1129 9.04351 60.7492 9.28313 62.3178 9.77462C63.609 10.0969 64.8163 10.6925 65.8585 11.5218V17.2012Z" fill="#FF0000"/>
<path d="M85.1435 17.2015H81.1669L80.5677 14.4712C80.1032 14.1229 79.589 13.8466 79.0424 13.6519C78.3754 13.428 77.6758 13.3172 76.9724 13.3243C76.0977 13.2672 75.2306 13.5183 74.5211 14.0342C74.2372 14.2286 74.0046 14.4891 73.8433 14.7935C73.682 15.0978 73.5968 15.437 73.595 15.7817C73.6034 16.1039 73.6865 16.4196 73.8378 16.7039C73.9891 16.9883 74.2044 17.2334 74.4666 17.4199C75.542 18.0287 76.7268 18.4185 77.9529 18.5667C80.1251 18.8942 82.1935 19.7162 83.9995 20.9695C84.6288 21.4946 85.1319 22.1551 85.4714 22.9019C85.811 23.6488 85.9782 24.4628 85.9606 25.2833C85.9642 26.2418 85.7326 27.1865 85.2861 28.0341C84.8396 28.8816 84.192 29.606 83.4003 30.1435C81.4442 31.4677 79.1119 32.1191 76.7545 32C75.1614 32.008 73.5781 31.7499 72.0697 31.2357C70.7297 30.7526 69.4782 30.0515 68.3655 29.1606V24.2458H72.451L73.2682 27.0855C73.6902 27.3994 74.1724 27.6225 74.6845 27.7408C75.3189 27.7942 75.9567 27.7942 76.5911 27.7408C77.5444 27.8059 78.4948 27.5773 79.3148 27.0855C79.6158 26.9049 79.8645 26.6487 80.0365 26.3422C80.2085 26.0358 80.2977 25.6896 80.2953 25.338C80.2834 24.9967 80.1877 24.6637 80.0167 24.3684C79.8456 24.0731 79.6045 23.8247 79.3148 23.6452C78.247 22.9994 77.062 22.5726 75.8284 22.3893C73.7357 22.0503 71.7446 21.2478 69.9997 20.0409C69.363 19.5467 68.853 18.9077 68.512 18.1764C68.1709 17.4452 68.0087 16.643 68.0387 15.8364C68.0382 14.9228 68.2438 14.021 68.64 13.1983C69.0362 12.3756 69.6127 11.6534 70.3266 11.0855C72.1376 9.62214 74.4342 8.9003 76.7545 9.06508C78.3797 9.04782 79.9974 9.28742 81.5482 9.775C82.851 10.1111 84.0734 10.705 85.1435 11.5221V17.2015Z" fill="#FF0000"/>
<path d="M97.1279 31.9996C95.7298 32.0572 94.3355 31.8142 93.0389 31.2867C91.7423 30.7593 90.5733 29.9596 89.6105 28.9416C87.7037 26.8418 86.6877 24.0802 86.7779 21.2421V20.4229C86.6569 17.5097 87.6067 14.6535 89.4471 12.3957C91.2492 10.4682 93.7393 9.33451 96.373 9.24241C99.0067 9.15031 101.57 10.1072 103.501 11.9041C105.214 13.9225 106.091 16.5211 105.953 19.167V22.389H92.8789C92.9239 23.7117 93.4466 24.9729 94.3497 25.9383C94.7972 26.4092 95.3395 26.7794 95.9406 27.0242C96.5416 27.269 97.1877 27.3828 97.8361 27.3581C98.937 27.3653 100.035 27.2368 101.104 26.9759C102.08 26.6321 103.027 26.2122 103.937 25.72L105.517 29.3786C104.445 30.1734 103.248 30.7826 101.976 31.1807C100.422 31.6549 98.8066 31.8941 97.1824 31.8907L97.1279 31.9996ZM96.4742 13.8156C95.9707 13.8049 95.4717 13.9131 95.0175 14.1312C94.5633 14.3494 94.1666 14.6714 93.8594 15.0715C93.1812 16.0355 92.785 17.1701 92.7155 18.3478V18.3478H99.9605V17.8565C99.9791 16.773 99.6757 15.7086 99.089 14.7985C98.757 14.424 98.3437 14.1306 97.8809 13.9412C97.4182 13.7519 96.9183 13.6716 96.4197 13.7063" fill="#FF0000"/>
<path d="M107.912 28.6141C107.897 28.2222 107.962 27.8314 108.103 27.4653C108.243 27.0991 108.456 26.7656 108.729 26.4847C108.995 26.2026 109.316 25.9792 109.672 25.8288C110.029 25.6783 110.413 25.604 110.799 25.6108C111.178 25.6048 111.553 25.6798 111.901 25.8304C112.248 25.9811 112.56 26.2041 112.815 26.4847C113.088 26.7656 113.301 27.0991 113.442 27.4653C113.582 27.8314 113.647 28.2222 113.632 28.6141C113.652 29.4209 113.359 30.2042 112.815 30.7986C112.554 31.0714 112.241 31.2891 111.895 31.4392C111.549 31.5892 111.176 31.6683 110.799 31.6721C110.022 31.661 109.28 31.3479 108.729 30.7986C108.185 30.2042 107.892 29.4209 107.912 28.6141V28.6141ZM108.403 28.6141C108.389 28.9473 108.446 29.2798 108.567 29.59C108.689 29.9003 108.874 30.1816 109.111 30.4163C109.321 30.6574 109.581 30.8507 109.872 30.9825C110.164 31.1144 110.48 31.182 110.799 31.1809C111.118 31.1753 111.432 31.1047 111.722 30.9732C112.013 30.8418 112.273 30.6521 112.488 30.4163C112.914 29.913 113.148 29.2742 113.148 28.6141C113.148 27.954 112.914 27.3156 112.488 26.8123C112.271 26.5838 112.008 26.4025 111.718 26.2804C111.427 26.1582 111.114 26.0978 110.799 26.1024C110.483 26.0908 110.169 26.1481 109.877 26.2707C109.585 26.3933 109.324 26.5782 109.111 26.8123C108.874 27.047 108.689 27.3283 108.567 27.6386C108.446 27.9488 108.389 28.2809 108.403 28.6141V28.6141ZM110.2 28.9418V30.307H109.601V27.0306H110.745C111.047 26.9379 111.369 26.9379 111.671 27.0306C111.799 27.1233 111.901 27.2472 111.968 27.3906C112.035 27.534 112.064 27.6921 112.052 27.8499C112.098 27.9919 112.098 28.1445 112.052 28.2865C111.95 28.4215 111.82 28.5331 111.671 28.6141C111.751 28.6283 111.826 28.6602 111.892 28.7075C111.958 28.7547 112.013 28.8163 112.052 28.8874C112.107 29.0653 112.107 29.2555 112.052 29.4334V29.9793H111.399V29.1604C111.429 29.0915 111.444 29.0169 111.444 28.9418C111.444 28.8666 111.429 28.7923 111.399 28.7235C111.399 28.7235 111.399 28.7235 110.963 28.7235L110.2 28.9418ZM110.2 28.3958H110.799H111.235C111.264 28.3363 111.279 28.2711 111.279 28.2048C111.279 28.1386 111.264 28.0731 111.235 28.0135C111.265 27.9446 111.281 27.8704 111.281 27.7952C111.281 27.72 111.265 27.6455 111.235 27.5766H110.69H110.146L110.2 28.3958Z" fill="#FF0000"/>
</svg>
