<svg width="25" height="25" viewBox="0 0 25 25" fill="none" xmlns="http://www.w3.org/2000/svg">
<path d="M5.76758 6.93092V6.56445H19.6034V6.93092H5.76758Z" fill="black" stroke="#8F8884"/>
<path d="M5.73828 10.4817V10.1152H17.9397V10.4817H5.73828Z" fill="black" stroke="#8F8884"/>
<path d="M5.73828 13.9456V13.5791H14.0282V13.9456H5.73828Z" fill="black" stroke="#8F8884"/>
<path d="M20.5954 19.0608H14.6274L10.129 23.6186C10.0931 23.6459 10.0505 23.6625 10.006 23.6665C9.96143 23.6706 9.91668 23.6619 9.87664 23.6415C9.83661 23.6211 9.80284 23.5897 9.77907 23.5509C9.75531 23.5121 9.74246 23.4672 9.74195 23.4214L9.7129 19.0573H4.77958C4.37345 19.0573 3.9713 18.9752 3.5961 18.8157C3.22089 18.6563 2.87999 18.4225 2.59285 18.1279C2.30571 17.8333 2.07797 17.4835 1.92262 17.0985C1.76728 16.7136 1.68739 16.301 1.6875 15.8843V4.87811C1.6875 4.03683 2.01327 3.23 2.59315 2.63513C3.17303 2.04025 3.95951 1.70605 4.77958 1.70605H20.5954C21.4155 1.70605 22.202 2.04025 22.7819 2.63513C23.3617 3.23 23.6875 4.03683 23.6875 4.87811V15.8879C23.6876 16.3045 23.6077 16.7171 23.4524 17.102C23.297 17.487 23.0693 17.8368 22.7822 18.1314C22.495 18.426 22.1541 18.6598 21.7789 18.8192C21.4037 18.9787 21.0015 19.0608 20.5954 19.0608V19.0608Z" stroke="#8F8884" stroke-width="1.8" stroke-miterlimit="10"/>
</svg>
