<svg width="44" height="44" viewBox="0 0 44 44" fill="none" xmlns="http://www.w3.org/2000/svg">
<path d="M17.0055 30.9062H17V14.0938H17.0055V13.0938C17.0055 13.0675 17.0153 13.0437 17.0341 13.0247C17.0528 13.0059 17.0715 13 17.0883 13C17.0948 13 17.0989 13.0005 17.1064 13.0028C17.1157 13.0057 17.1375 13.0137 17.1756 13.0359C17.1762 13.0362 17.1768 13.0366 17.1774 13.0369L32.3109 22.0442C32.4326 22.1679 32.5 22.3262 32.5 22.5C32.5 22.6785 32.4295 22.8377 32.3143 22.9538L17.2086 31.9433C17.1419 31.9787 17.108 31.9923 17.0904 31.9981C17.0878 31.9989 17.0859 31.9995 17.0845 31.9999C17.0687 31.9991 17.0514 31.9927 17.0341 31.9753C17.0153 31.9563 17.0055 31.9325 17.0055 31.9062V30.9062Z" stroke="white" stroke-width="2"/>
<line x1="12" y1="13" x2="12" y2="32" stroke="white" stroke-width="2" stroke-linecap="round"/>
</svg>
