<svg width="44" height="44" viewBox="0 0 44 44" fill="none" xmlns="http://www.w3.org/2000/svg">
<path d="M14.0055 30.9062H14V14.0938H14.0055V13.0938C14.0055 13.0675 14.0153 13.0437 14.0341 13.0247C14.0528 13.0059 14.0715 13 14.0883 13C14.0948 13 14.0989 13.0005 14.1064 13.0028C14.1157 13.0057 14.1375 13.0137 14.1756 13.0359C14.1762 13.0362 14.1768 13.0366 14.1774 13.0369L29.3109 22.0442C29.4326 22.1679 29.5 22.3262 29.5 22.5C29.5 22.6785 29.4295 22.8377 29.3142 22.9538L14.2086 31.9433C14.1419 31.9787 14.108 31.9923 14.0904 31.9981C14.0878 31.9989 14.0859 31.9995 14.0845 31.9999C14.0687 31.9991 14.0514 31.9927 14.0341 31.9753C14.0153 31.9563 14.0055 31.9325 14.0055 31.9062V30.9062Z" stroke="white" stroke-width="2"/>
</svg>
