<svg width="44" height="44" viewBox="0 0 44 44" fill="none" xmlns="http://www.w3.org/2000/svg">
<path d="M26.9945 30.9062H27V14.0938H26.9945V13.0938C26.9945 13.0675 26.9847 13.0437 26.9659 13.0247C26.9472 13.0059 26.9285 13 26.9117 13C26.9052 13 26.9011 13.0005 26.8936 13.0028C26.8843 13.0057 26.8625 13.0137 26.8244 13.0359C26.8238 13.0362 26.8232 13.0366 26.8226 13.0369L11.6891 22.0442C11.5674 22.1679 11.5 22.3262 11.5 22.5C11.5 22.6785 11.5705 22.8377 11.6857 22.9538L26.7914 31.9433C26.8581 31.9787 26.892 31.9923 26.9096 31.9981C26.9122 31.9989 26.9141 31.9995 26.9155 31.9999C26.9313 31.9991 26.9486 31.9927 26.9659 31.9753C26.9847 31.9563 26.9945 31.9325 26.9945 31.9062V30.9062Z" stroke="white" stroke-width="2"/>
<line x1="1" y1="-1" x2="20" y2="-1" transform="matrix(-4.37114e-08 1 1 4.37114e-08 33 12)" stroke="white" stroke-width="2" stroke-linecap="round"/>
</svg>
