<svg width="22" height="25" viewBox="0 0 22 25" fill="none" xmlns="http://www.w3.org/2000/svg">
<path d="M15.7658 24.7816H1.71569C1.47045 24.7816 1.23526 24.6842 1.06185 24.5108C0.888437 24.3373 0.791016 24.1021 0.791016 23.8569V5.91393C0.791016 5.66869 0.888437 5.4335 1.06185 5.26009C1.23526 5.08668 1.47045 4.98926 1.71569 4.98926H15.7658C16.011 4.98926 16.2462 5.08668 16.4196 5.26009C16.593 5.4335 16.6905 5.66869 16.6905 5.91393V23.8569C16.6905 24.1021 16.593 24.3373 16.4196 24.5108C16.2462 24.6842 16.011 24.7816 15.7658 24.7816ZM2.64036 22.9322H14.8411V6.8386H2.64036V22.9322Z" fill="#8F8884"/>
<path d="M20.7541 19.7923H15.7651C15.5199 19.7923 15.2847 19.6949 15.1113 19.5215C14.9379 19.3481 14.8405 19.1129 14.8405 18.8677C14.8405 18.6224 14.9379 18.3872 15.1113 18.2138C15.2847 18.0404 15.5199 17.943 15.7651 17.943H19.8294V1.84935H7.62864V5.91298C7.62864 6.15822 7.53122 6.39341 7.35781 6.56682C7.1844 6.74023 6.94921 6.83765 6.70397 6.83765C6.45873 6.83765 6.22354 6.74023 6.05013 6.56682C5.87672 6.39341 5.7793 6.15822 5.7793 5.91298V0.924673C5.7793 0.679435 5.87672 0.444241 6.05013 0.270831C6.22354 0.0974207 6.45873 0 6.70397 0H20.7541C20.9993 0 21.2345 0.0974207 21.4079 0.270831C21.5813 0.444241 21.6787 0.679435 21.6787 0.924673V18.8677C21.6787 19.1129 21.5813 19.3481 21.4079 19.5215C21.2345 19.6949 20.9993 19.7923 20.7541 19.7923Z" fill="#8F8884"/>
</svg>
