<svg width="44" height="44" viewBox="0 0 44 44" fill="none" xmlns="http://www.w3.org/2000/svg">
<g clip-path="url(#clip0_219_112565)">
<path d="M23.4153 21.9917C23.4153 23.9914 23.4232 25.9912 23.4153 27.9909C23.4096 29.1667 22.5136 30.0561 21.4188 29.995C20.9368 29.9666 20.4847 29.748 20.1588 29.3856C19.2292 28.4105 18.2896 27.447 17.3779 26.4566C16.916 25.9548 16.3918 25.7134 15.7075 25.7119C14.9935 25.7176 14.2804 25.6592 13.5766 25.5374C12.6784 25.3716 12.1257 24.7673 12.0699 23.8395C11.9886 22.6689 11.9824 21.4942 12.0513 20.3228C12.1364 19.0823 12.8171 18.4773 14.0485 18.366C14.6413 18.3122 15.2377 18.2824 15.8319 18.2824C16.1001 18.2886 16.3665 18.2363 16.6132 18.1291C16.8599 18.0218 17.0811 17.8621 17.2621 17.6607C18.2265 16.6368 19.1966 15.6188 20.1724 14.6065C20.6558 14.1033 21.245 13.891 21.9308 14.0561C22.8275 14.2706 23.411 15.0399 23.4146 16.0296C23.4203 18.0163 23.4153 20.0036 23.4153 21.9917ZM21.9852 22.0063C21.9852 20.056 21.9852 18.1055 21.9852 16.1547C21.9852 15.8696 21.9444 15.6108 21.6569 15.4915C21.3695 15.3723 21.2172 15.5933 21.0527 15.7664C20.161 16.7059 19.2528 17.6367 18.3733 18.5914C17.6632 19.3608 16.818 19.7549 15.7733 19.7404C15.2139 19.7398 14.6549 19.7694 14.0986 19.8291C13.6302 19.8727 13.4836 19.9876 13.4672 20.4537C13.4307 21.4681 13.4242 22.4862 13.46 23.5006C13.4786 24.0263 13.6266 24.1369 14.1586 24.179C14.7872 24.2292 15.4186 24.2459 16.0486 24.2707C16.8077 24.2859 17.5332 24.5918 18.0801 25.1273C18.3125 25.3527 18.5328 25.5912 18.7566 25.8261C19.5532 26.6609 20.3419 27.503 21.1514 28.3247C21.2665 28.441 21.5304 28.553 21.6369 28.4963C21.7935 28.4134 21.8836 28.1821 21.9744 28.0003C22.013 27.9233 21.983 27.8098 21.983 27.7131L21.9852 22.0063Z" fill="white"/>
<path d="M32.0002 22.3051C31.9351 25.0683 30.7845 27.6309 28.6243 29.7317C28.2667 30.0793 27.8456 30.0865 27.5517 29.7717C27.2578 29.4568 27.2792 29.0307 27.6403 28.6809C29.0512 27.3138 30.0223 25.6864 30.3862 23.7325C30.979 20.546 30.0373 17.8315 27.8448 15.5278C27.7869 15.4667 27.724 15.41 27.6654 15.3504C27.2928 14.9701 27.2506 14.5505 27.5502 14.232C27.8499 13.9135 28.2725 13.9295 28.6529 14.2923C29.5165 15.1129 30.2401 16.0737 30.7938 17.1356C31.5854 18.6619 31.9923 20.2886 32.0002 22.3051Z" fill="white"/>
<path d="M28.4246 21.9281C28.3945 23.4748 27.8904 24.8099 26.8729 25.9378C26.5332 26.3144 26.132 26.3595 25.8002 26.0665C25.4684 25.7734 25.4799 25.3553 25.8002 24.9757C27.3906 23.0785 27.3899 20.8228 25.7967 18.9176C25.4777 18.5366 25.4806 18.1134 25.8045 17.8269C26.1285 17.5404 26.5368 17.5898 26.8729 17.9621C27.8947 19.0849 28.3945 20.4221 28.4246 21.9281Z" fill="white"/>
</g>
<defs>
<clipPath id="clip0_219_112565">
<rect width="20" height="16" fill="white" transform="translate(12 14)"/>
</clipPath>
</defs>
</svg>
