<svg width="24" height="24" viewBox="0 0 24 24" fill="none" xmlns="http://www.w3.org/2000/svg">
<path d="M16.9668 1.0097C18.3201 1.0097 19.6727 1.00649 21.0261 1.01051C22.2943 1.01453 22.9923 1.70346 22.9955 2.97682C23.0027 5.69557 22.9955 8.41351 23.0003 11.1323C23.0011 11.7408 22.7985 12.244 22.3626 12.6789C19.1195 15.913 15.886 19.1567 12.6428 22.3907C11.8162 23.2147 10.8037 23.1962 9.98028 22.373C7.20595 19.5988 4.43162 16.823 1.6573 14.0488C0.779965 13.1717 0.779965 12.187 1.66293 11.3035C4.83531 8.13135 8.01412 4.96564 11.1736 1.78144C11.7124 1.23801 12.3059 0.983175 13.069 1.00086C14.3677 1.0306 15.668 1.0089 16.9668 1.0097ZM16.9756 2.0845C15.6085 2.0845 14.2423 2.06842 12.876 2.09817C12.6123 2.10379 12.2842 2.22277 12.1008 2.40445C8.84642 5.62965 5.60971 8.87173 2.37138 12.1122C1.98298 12.5005 1.9878 12.8687 2.38023 13.261C5.16421 16.0456 7.94979 18.8295 10.7362 21.6117C11.1415 22.0161 11.5041 22.0153 11.9135 21.6061C15.1357 18.3873 18.3539 15.1654 21.5786 11.9498C21.811 11.7175 21.9292 11.4723 21.9276 11.1355C21.9187 8.40306 21.9236 5.67065 21.9219 2.93823C21.9219 2.32567 21.6823 2.08611 21.0752 2.08531C19.7081 2.08289 18.3419 2.08531 16.9748 2.08531L16.9756 2.0845Z" fill="#8F8884"/>
<path fill-rule="evenodd" clip-rule="evenodd" d="M21.0268 0.910897L21.0268 0.910897C21.6784 0.912962 22.1985 1.09126 22.5561 1.44718C22.9137 1.80318 23.0942 2.32254 23.0959 2.97695C23.0998 4.45967 23.0995 5.94285 23.0991 7.42589C23.0988 8.66164 23.0985 9.89728 23.1007 11.1325V11.1325C23.1015 11.7672 22.8887 12.2961 22.4336 12.7501L22.4336 12.7501C20.8121 14.3671 19.193 15.9865 17.5738 17.6059L17.571 17.6088C15.9528 19.2273 14.3345 20.8458 12.7138 22.4619L12.7138 22.4619C12.2855 22.8888 11.8011 23.1048 11.3098 23.0999C10.8187 23.0951 10.3359 22.87 9.90997 22.4441L9.97745 22.3766L9.90996 22.4441C8.52934 21.0636 7.14873 19.6826 5.76812 18.3017L5.74846 18.282C4.3613 16.8945 2.97414 15.507 1.58699 14.1199C1.13534 13.6684 0.899638 13.1788 0.900392 12.6788C0.901147 12.1788 1.13826 11.6878 1.59258 11.2332L1.59261 11.2332C2.3984 10.4274 3.20457 9.62216 4.01071 8.8169C6.37855 6.45169 8.74614 4.08671 11.103 1.71139C11.66 1.14962 12.2796 0.882925 13.0717 0.901276M1.65769 14.0492C3.04482 15.4362 4.43196 16.8237 5.8191 18.2112C7.20629 19.5987 8.59348 20.9863 9.98067 22.3734C10.8041 23.1966 11.8165 23.2151 12.6432 22.3911C14.2648 20.7741 15.8839 19.1547 17.503 17.5353C19.1222 15.9159 20.7414 14.2964 22.363 12.6793C22.7989 12.2444 23.0015 11.7412 23.0007 11.1327C22.9985 9.89689 22.9988 8.66129 22.9991 7.42571C22.9995 5.94294 22.9998 4.46019 22.9959 2.97721C22.9927 1.70385 22.2947 1.01492 21.0265 1.0109C20.0896 1.00811 19.153 1.0088 18.2163 1.00948C17.8 1.00979 17.3836 1.01009 16.9671 1.01009C16.5719 1.00985 16.1766 1.01169 15.7812 1.01353C14.8772 1.01773 13.9729 1.02194 13.0694 1.00125C12.3063 0.983565 11.7128 1.2384 11.174 1.78183C8.81693 4.15734 6.44909 6.52257 4.08119 8.88785C3.27509 9.69305 2.469 10.4983 1.66332 11.3039C0.780356 12.1874 0.780356 13.1721 1.65769 14.0492ZM16.976 2.0857C16.9763 2.0857 16.9765 2.0857 16.9768 2.0857C17.0234 2.0857 17.0701 2.08569 17.1167 2.08569C17.5252 2.08564 17.9337 2.0854 18.3421 2.08516C19.2532 2.08462 20.1642 2.08409 21.0756 2.0857C21.6827 2.0865 21.9223 2.32606 21.9223 2.93862C21.9229 3.81323 21.9227 4.68784 21.9226 5.56245C21.9223 7.42026 21.922 9.27806 21.928 11.1359C21.9296 11.4727 21.8114 11.7179 21.579 11.9502C19.5152 14.0082 17.454 16.0688 15.3927 18.1295C14.2333 19.2886 13.0738 20.4478 11.9139 21.6065C11.5045 22.0157 11.1419 22.0165 10.7366 21.6121C7.95018 18.8299 5.1646 16.046 2.38062 13.2613C1.98819 12.869 1.98337 12.5009 2.37177 12.1126C2.64736 11.8368 2.92293 11.561 3.1985 11.2853C6.16112 8.32043 9.12376 5.35557 12.1012 2.40484C12.2846 2.22316 12.6127 2.10418 12.8764 2.09856C13.8878 2.07654 14.8991 2.07963 15.9108 2.08272C16.2187 2.08366 16.5266 2.0846 16.8345 2.08484C16.8812 2.08487 16.9278 2.08489 16.9744 2.08489C16.9747 2.08489 16.9749 2.08489 16.9752 2.08489C16.9755 2.08489 16.9757 2.08489 16.976 2.08489L16.9752 2.0857C16.9755 2.0857 16.9757 2.0857 16.976 2.0857ZM10.8072 21.5413C11.0009 21.7346 11.1687 21.815 11.3233 21.8144C11.4781 21.8137 11.6472 21.7316 11.8432 21.5358L11.8432 21.5358C13.0032 20.377 14.1627 19.2178 15.3222 18.0586C17.3834 15.9979 19.4446 13.9373 21.5084 11.8794C21.7244 11.6634 21.8294 11.4429 21.828 11.1363L21.828 11.1362C21.8219 9.27809 21.8223 7.41987 21.8226 5.56184C21.8227 4.6874 21.8229 3.813 21.8223 2.93868V2.93862C21.8223 2.64169 21.7636 2.46172 21.6557 2.35326C21.548 2.24492 21.3695 2.18608 21.0754 2.18569H21.0754C20.1642 2.18409 19.2534 2.18462 18.3423 2.18516C17.8867 2.18543 17.431 2.1857 16.9752 2.1857H16.7335L16.7345 2.18474C16.4593 2.1844 16.1843 2.18356 15.9094 2.18272C14.8981 2.17963 13.8886 2.17655 12.8786 2.19853L12.8786 2.19853C12.6355 2.20372 12.3335 2.31544 12.1716 2.47587C9.19433 5.42642 6.23185 8.39112 3.2692 11.356C2.99364 11.6318 2.71808 11.9075 2.44251 12.1833L2.44247 12.1833C2.25844 12.3673 2.18201 12.5321 2.18338 12.6846C2.18476 12.8375 2.26466 13.004 2.45132 13.1906L2.45134 13.1906C5.23529 15.9753 8.02084 18.7591 10.8072 21.5413ZM21.0268 0.910897C20.0897 0.908114 19.1528 0.908799 18.216 0.909484ZM18.216 0.909484C17.7998 0.909789 17.3835 0.910093 16.9672 0.910093ZM16.9672 0.910093C16.9672 0.910093 16.9672 0.910093 16.9671 0.910093ZM16.9671 0.910093C16.5708 0.909848 16.1748 0.911691 15.7791 0.913533ZM15.7791 0.913533C14.8758 0.917738 13.9738 0.921936 13.0717 0.901277Z" fill="#8F8884"/>
<path d="M18.1243 3.77842C19.2992 3.78887 20.2425 4.7656 20.2296 5.95776C20.2175 7.11295 19.2445 8.05832 18.0777 8.04868C16.8843 8.03903 15.9459 7.08321 15.9571 5.89024C15.9684 4.69807 16.9229 3.76717 18.1243 3.77842ZM18.0785 6.98674C18.6599 6.99317 19.1536 6.50923 19.1601 5.92722C19.1665 5.3444 18.6856 4.85322 18.101 4.84438C17.5204 4.83634 17.025 5.32028 17.0178 5.9039C17.0106 6.48351 17.4963 6.98031 18.0777 6.98674H18.0785Z" fill="#8F8884"/>
</svg>
