<svg width="12" height="12" viewBox="0 0 12 12" fill="none" xmlns="http://www.w3.org/2000/svg">
<path d="M6.37154 5.8139H7.617C8.24216 5.8139 8.86611 5.8139 9.49128 5.8139C9.774 5.8139 9.93243 5.94795 9.93364 6.1795C9.93486 6.41104 9.77644 6.55606 9.49737 6.55606C8.35428 6.55606 7.21119 6.55606 6.0681 6.55606C5.75369 6.55606 5.62695 6.42688 5.62695 6.10881C5.62695 5.02909 5.62695 3.94856 5.62695 2.86722C5.62695 2.56378 5.82194 2.38585 6.08273 2.44191C6.27162 2.48334 6.37276 2.62471 6.37276 2.86356C6.37276 3.76374 6.37276 4.6635 6.37276 5.56286L6.37154 5.8139Z" fill="black"/>
<circle cx="6" cy="6" r="5.5" stroke="black"/>
</svg>
