<svg width="12" height="14" viewBox="0 0 12 14" fill="none" xmlns="http://www.w3.org/2000/svg">
<path d="M9.0069 13.5452H2.99245C2.6404 13.5443 2.30302 13.4035 2.05409 13.1535C1.80515 12.9035 1.66492 12.5646 1.66406 12.2111V2.80275C1.66406 2.67298 1.71539 2.54854 1.80676 2.45678C1.89812 2.36502 2.02204 2.31348 2.15125 2.31348H9.84875C9.97796 2.31348 10.1019 2.36502 10.1932 2.45678C10.2846 2.54854 10.3359 2.67298 10.3359 2.80275V12.2111C10.3351 12.5647 10.1948 12.9037 9.94568 13.1537C9.69661 13.4037 9.35906 13.5445 9.0069 13.5452ZM2.63843 3.29202V12.2111C2.63852 12.3054 2.67584 12.3957 2.74222 12.4624C2.80859 12.529 2.89858 12.5665 2.99245 12.5666H9.0069C9.10082 12.5666 9.1909 12.5292 9.25734 12.4625C9.32379 12.3958 9.36116 12.3054 9.36124 12.2111V3.29202H2.63843Z" fill="#8F8884"/>
<path d="M8.04633 3.29154H3.95398C3.82477 3.29154 3.70085 3.23999 3.60949 3.14824C3.51813 3.05648 3.4668 2.93203 3.4668 2.80227V1.9131C3.46731 1.52626 3.62058 1.1554 3.89299 0.881891C4.1654 0.608377 4.5347 0.454533 4.9199 0.454102H7.0804C7.4656 0.454533 7.83491 0.608377 8.10732 0.881891C8.37972 1.1554 8.53299 1.52626 8.53351 1.9131V2.80227C8.53351 2.93203 8.48218 3.05648 8.39082 3.14824C8.29945 3.23999 8.17554 3.29154 8.04633 3.29154ZM4.44116 2.313H7.55914V1.9131C7.55897 1.78567 7.50847 1.66352 7.41871 1.57344C7.32896 1.48337 7.20729 1.43273 7.0804 1.43264H4.9199C4.79307 1.43281 4.67149 1.48349 4.5818 1.57356C4.49212 1.66362 4.44166 1.78573 4.44149 1.9131L4.44116 2.313Z" fill="#8F8884"/>
<path d="M5.99988 11.6711C5.87067 11.6711 5.74675 11.6195 5.65539 11.5277C5.56402 11.436 5.5127 11.3115 5.5127 11.1818V4.67482C5.5127 4.54505 5.56402 4.42061 5.65539 4.32885C5.74675 4.23709 5.87067 4.18555 5.99988 4.18555C6.12909 4.18555 6.25301 4.23709 6.34437 4.32885C6.43574 4.42061 6.48706 4.54505 6.48706 4.67482V11.1818C6.48706 11.3115 6.43574 11.436 6.34437 11.5277C6.25301 11.6195 6.12909 11.6711 5.99988 11.6711Z" fill="#8F8884"/>
<path d="M4.24109 11.6711C4.11188 11.6711 3.98796 11.6195 3.8966 11.5277C3.80523 11.436 3.75391 11.3115 3.75391 11.1818V4.67482C3.75391 4.54505 3.80523 4.42061 3.8966 4.32885C3.98796 4.23709 4.11188 4.18555 4.24109 4.18555C4.3703 4.18555 4.49422 4.23709 4.58558 4.32885C4.67695 4.42061 4.72827 4.54505 4.72827 4.67482V11.1818C4.72827 11.3115 4.67695 11.436 4.58558 11.5277C4.49422 11.6195 4.3703 11.6711 4.24109 11.6711Z" fill="#8F8884"/>
<path d="M7.75964 11.6711C7.63044 11.6711 7.50652 11.6195 7.41515 11.5277C7.32379 11.436 7.27246 11.3115 7.27246 11.1818V4.67482C7.27246 4.54505 7.32379 4.42061 7.41515 4.32885C7.50652 4.23709 7.63044 4.18555 7.75964 4.18555C7.88885 4.18555 8.01277 4.23709 8.10414 4.32885C8.1955 4.42061 8.24683 4.54505 8.24683 4.67482V11.1818C8.24683 11.3115 8.1955 11.436 8.10414 11.5277C8.01277 11.6195 7.88885 11.6711 7.75964 11.6711Z" fill="#8F8884"/>
<path d="M10.6038 3.29202H1.39636C1.26715 3.29202 1.14324 3.24047 1.05187 3.14871C0.960508 3.05696 0.90918 2.93251 0.90918 2.80275C0.90918 2.67298 0.960508 2.54854 1.05187 2.45678C1.14324 2.36502 1.26715 2.31348 1.39636 2.31348H10.6038C10.733 2.31348 10.8569 2.36502 10.9483 2.45678C11.0397 2.54854 11.091 2.67298 11.091 2.80275C11.091 2.93251 11.0397 3.05696 10.9483 3.14871C10.8569 3.24047 10.733 3.29202 10.6038 3.29202Z" fill="#8F8884"/>
</svg>
