<svg width="25" height="23" viewBox="0 0 25 23" fill="none" xmlns="http://www.w3.org/2000/svg">
<path d="M23.7428 4.05512L23.7429 4.05507L23.7404 4.05148C23.0615 3.07116 22.153 2.27162 21.094 1.72253C20.0355 1.17365 18.8586 0.891687 17.6661 0.90118C16.7391 0.883614 15.819 1.06242 14.9662 1.42584C14.1459 1.77541 13.4059 2.28818 12.7909 2.93249C12.1754 2.28905 11.4353 1.77687 10.6152 1.42738C9.76256 1.06404 8.84278 0.88473 7.91603 0.90118C6.72343 0.891677 5.54659 1.17364 4.48799 1.72253C3.429 2.27162 2.52049 3.07116 1.84164 4.05148L1.84156 4.05143L1.83924 4.05512C1.14721 5.15382 0.753835 6.41382 0.697936 7.71079C0.642078 9.00683 0.925133 10.295 1.51918 11.4485C2.41453 13.4563 3.65671 15.291 5.18885 16.8685C6.91955 18.6825 8.81301 20.3342 10.8455 21.8028C11.4112 22.2127 12.0922 22.4333 12.791 22.4333C13.4898 22.4333 14.1708 22.2127 14.7366 21.8028C16.7695 20.3348 18.663 18.683 20.3932 16.8685C21.9253 15.291 23.1675 13.4563 24.0629 11.4485C24.6569 10.295 24.94 9.00683 24.8841 7.71079C24.8282 6.41382 24.4348 5.15382 23.7428 4.05512ZM22.4166 10.7475L22.4165 10.7474L22.414 10.7528C21.5911 12.5631 20.4629 14.2187 19.0788 15.6473L19.0784 15.6477C17.4235 17.3747 15.6152 18.9482 13.6759 20.349L13.6759 20.349L13.6745 20.35C13.4196 20.541 13.1096 20.6443 12.791 20.6443C12.4724 20.6443 12.1624 20.541 11.9075 20.35L11.9061 20.349C9.96729 18.9476 8.15911 17.3741 6.50364 15.6476L6.50296 15.647C5.11215 14.2242 3.98328 12.5676 3.16818 10.7532L3.16836 10.7531L3.1654 10.7475C2.69762 9.86129 2.46758 8.86914 2.49768 7.86771C2.52775 6.86742 2.81633 5.89193 3.33536 5.03607C3.85142 4.30571 4.53782 3.71192 5.33519 3.30612C6.13359 2.89979 7.01915 2.69419 7.91507 2.70716L7.91507 2.70727L7.91987 2.70711C8.64686 2.68273 9.36987 2.82404 10.0341 3.12031C10.6983 3.41658 11.2863 3.86003 11.7535 4.41706L11.753 4.41745L11.761 4.42508C12.043 4.69469 12.4182 4.84516 12.8085 4.84516C13.1988 4.84516 13.574 4.69469 13.856 4.42508L13.8564 4.42552L13.8635 4.41708C14.3271 3.86467 14.9095 3.42398 15.5674 3.12789C16.2253 2.83181 16.9416 2.68797 17.6629 2.70713L17.6629 2.70722L17.667 2.70716C18.5629 2.69419 19.4484 2.89979 20.2468 3.30612C21.0442 3.71193 21.7306 4.30571 22.2467 5.03609C22.7657 5.89194 23.0543 6.86742 23.0844 7.86771C23.1145 8.86914 22.8844 9.86129 22.4166 10.7475Z" fill="#8F8884" stroke="#8F8884" stroke-width="0.2"/>
</svg>
